<svg id="Group_773" data-name="Group 773" xmlns="http://www.w3.org/2000/svg" xmlns:xlink="http://www.w3.org/1999/xlink" width="503.38" height="500" viewBox="0 0 503.38 500">
  <defs>
    <clipPath id="clip-path">
      <rect id="Rectangle_501" data-name="Rectangle 501" width="503.379" height="500" fill="none"/>
    </clipPath>
    <clipPath id="clip-path-4">
      <rect id="Rectangle_492" data-name="Rectangle 492" width="31.245" height="40.787" fill="none"/>
    </clipPath>
    <clipPath id="clip-path-5">
      <rect id="Rectangle_493" data-name="Rectangle 493" width="9.567" height="21.682" fill="none"/>
    </clipPath>
    <clipPath id="clip-path-6">
      <rect id="Rectangle_494" data-name="Rectangle 494" width="18.079" height="60.3" fill="none"/>
    </clipPath>
    <clipPath id="clip-path-7">
      <rect id="Rectangle_497" data-name="Rectangle 497" width="190.46" height="34.283" fill="none"/>
    </clipPath>
    <clipPath id="clip-path-8">
      <rect id="Rectangle_499" data-name="Rectangle 499" width="190.46" height="90.749" fill="none"/>
    </clipPath>
  </defs>
  <g id="Group_772" data-name="Group 772" clip-path="url(#clip-path)">
    <rect id="Rectangle_487" data-name="Rectangle 487" width="64.96" height="78.589" transform="translate(365.482 231.581)" fill="none" stroke="#e6edfc" stroke-miterlimit="10" stroke-width="2.032"/>
    <rect id="Rectangle_488" data-name="Rectangle 488" width="41.291" height="57.805" transform="translate(377.316 241.973)" fill="#e6edfc"/>
    <g id="Group_754" data-name="Group 754">
      <g id="Group_753" data-name="Group 753" clip-path="url(#clip-path)">
        <path id="Path_2165" data-name="Path 2165" d="M111.731,56.475A72.413,72.413,0,0,1,135.1,44.78c33.014-9.662,67.263-.243,100.25,4.173,21.062,2.819,43.042,3.516,63-3.77,17.877-6.525,32.911-18.991,49.919-27.524s38.492-12.68,54.446-2.3c16.054,10.443,21.463,31.132,21.909,49.257.634,25.823,1.4,51.855,6.6,77.242,5.584,27.284,18.24,48.391,32.04,72.074,12.536,21.514,16.225,49.034-2.409,68.613C407.589,338.5,316.866,308.4,249.9,316.951c-48.235,6.159-92.533,29.455-133.741,55.268-12.539,7.854-26.78,16.338-41.173,12.909-8.808-2.1-16.032-8.46-21.595-15.605-12.3-15.8-17.417-36.955-15.3-57.1C40.528,289.256,54,270.712,63.769,250.206c17.417-36.562,29.345-76.633,29.6-117.37.172-29.315-8.707-55.731,18.362-76.361" transform="translate(9.91 2.427)" fill="#e6edfc"/>
        <path id="Path_2166" data-name="Path 2166" d="M344.965,482.481H120.495a13.143,13.143,0,0,1-13.143-13.144V69.894A13.143,13.143,0,0,1,120.495,56.75H344.965a13.144,13.144,0,0,1,13.144,13.144V469.337a13.144,13.144,0,0,1-13.144,13.144" transform="translate(28.273 14.946)" fill="#fff"/>
        <rect id="Rectangle_489" data-name="Rectangle 489" width="250.759" height="425.731" rx="10.404" transform="translate(135.624 71.695)" fill="none" stroke="#e6edfc" stroke-miterlimit="10" stroke-width="1.187"/>
        <path id="Path_2167" data-name="Path 2167" d="M347.528,73.482V461.476A8.629,8.629,0,0,1,338.9,470.1H122.916a8.633,8.633,0,0,1-8.643-8.626V73.482a8.633,8.633,0,0,1,8.643-8.626h55.748a6.732,6.732,0,0,1,6.732,6.735,6.737,6.737,0,0,0,6.735,6.734h77.538a6.733,6.733,0,0,0,6.734-6.734,6.733,6.733,0,0,1,6.735-6.735H338.9a8.619,8.619,0,0,1,8.626,8.626" transform="translate(30.095 17.081)" fill="#8391fc"/>
        <line id="Line_44" data-name="Line 44" x2="42.422" transform="translate(233.3 85.303)" fill="none" stroke="#2b3468" stroke-linecap="round" stroke-miterlimit="10" stroke-width="2.223"/>
        <path id="Path_2168" data-name="Path 2168" d="M229.224,67.95a1.685,1.685,0,1,1-1.685-1.685,1.685,1.685,0,0,1,1.685,1.685" transform="translate(59.482 17.452)" fill="#2b3468"/>
        <rect id="Rectangle_490" data-name="Rectangle 490" width="210.112" height="49.348" transform="translate(155.947 245.633)" fill="#31374c"/>
      </g>
    </g>
    <text id="LEARN_MORE" data-name="LEARN MORE" transform="translate(210.955 280.649)" fill="#fff" font-size="25" font-family="Oswald-Bold, Oswald" font-weight="700"><tspan x="0" y="0">LEARN MORE</tspan></text>
    <g id="Group_771" data-name="Group 771">
      <g id="Group_770" data-name="Group 770" clip-path="url(#clip-path)">
        <path id="Path_2169" data-name="Path 2169" d="M162.432,216.221l-17.8-10.279V226.5Z" transform="translate(38.09 54.238)" fill="#8391fc"/>
        <path id="Path_2170" data-name="Path 2170" d="M366.455,336.934l-4.066-.536,3.75,2.264a42.606,42.606,0,0,1-9.008,18.331l-.024.024c-1.51,1.656-7.255-2.191-8.327-3.165-4.211-3.772-6.159-9.3-7.984-14.484-2.24-6.329-4.357-12.708-7.036-18.867-2.143-4.918-4.528-9.738-6.865-14.558l2.02-5.99-5.064-.51c-.486-1.071-.949-2.143-1.411-3.214-2.069-4.82-4.041-9.665-5.867-14.582.9.316,24.538,9.2,38.853,24l-1.875,3.019,5.454,1.071a37.454,37.454,0,0,1,4.528,7.181,33.493,33.493,0,0,1,2.921,20.012" transform="translate(83.374 74.176)" fill="#8391fc"/>
        <path id="Path_2171" data-name="Path 2171" d="M405.154,314.618c-.486.585-.925,1.193-1.387,1.8A161.733,161.733,0,0,1,389.3,334l-2.58-1.7s.877,1.728,1.412,2.9a172.75,172.75,0,0,1-14.486,13.462,20.4,20.4,0,0,1-4.748,3.091l-2.117-2.264s.049,1.631.049,2.922a6.98,6.98,0,0,1-2.361.072c-1.071-.145-4.918-.9-5.454-1.947L359,350.5a21.1,21.1,0,0,1,8.082-24.71l1.656,2.143,2.774-4.674a67.733,67.733,0,0,1,8.034-3.067,129.343,129.343,0,0,1,18.186-4.407c2.459-.438,4.941-.8,7.425-1.169" transform="translate(94.193 82.859)" fill="#8391fc"/>
        <path id="Path_2172" data-name="Path 2172" d="M347.252,353.857l-.024.024c-6.695,2.873-14.534.317-21.619-3.919.926-1.923,2.8-5.722,2.97-5.964s-3.457,2.653-5.55,4.333a101.2,101.2,0,0,1-18.21-16.141s26.8-1.7,36.76,3.457a13.413,13.413,0,0,1,2.556,1.728l-.875,2.045,2.24-.584c4.722,6.012,1.752,15.02,1.752,15.02" transform="translate(80.278 87.416)" fill="#8391fc"/>
        <path id="Path_2173" data-name="Path 2173" d="M353.227,383.6s9.272-57.675-24.518-90.184" transform="translate(86.57 77.276)" fill="none" stroke="#31374c" stroke-miterlimit="10" stroke-width="0.963"/>
        <path id="Path_2174" data-name="Path 2174" d="M349.134,383.93s3.278-45.26,41.2-60.583" transform="translate(91.949 85.158)" fill="none" stroke="#31374c" stroke-miterlimit="10" stroke-width="0.963"/>
        <path id="Path_2175" data-name="Path 2175" d="M355.664,369.4s-15.1-28.623-38.234-33.9" transform="translate(83.599 88.358)" fill="none" stroke="#31374c" stroke-miterlimit="10" stroke-width="0.963"/>
        <path id="Path_2176" data-name="Path 2176" d="M377.314,360.779l-11.377,41.056H342.174l-11.294-40.788a.54.54,0,0,1-.04-.144l-.042-.124Z" transform="translate(87.12 95.016)" fill="#31374c"/>
        <g id="Group_757" data-name="Group 757" transform="translate(433.106 456.063)" opacity="0.5" style="mix-blend-mode: multiply;isolation: isolate">
          <g id="Group_756" data-name="Group 756">
            <g id="Group_755" data-name="Group 755" clip-path="url(#clip-path-4)">
              <path id="Path_2177" data-name="Path 2177" d="M342.82,401.779h19.951l11.293-40.788c-1.092,3.381-12.86,38.5-31.244,40.788" transform="translate(-342.82 -360.991)" fill="#8391fc"/>
            </g>
          </g>
        </g>
        <path id="Path_2178" data-name="Path 2178" d="M62.733,280.666l40.476-3.335-1.045-69.437-9.521-14.651-12.995-8.778L67.68,187.257a14.162,14.162,0,0,0-10.9,14.862l6.393,48.912Z" transform="translate(14.942 48.581)" fill="#f4af9f"/>
        <path id="Path_2179" data-name="Path 2179" d="M71.018,177.848l.567,13.937s3.017,1.64,9.909,1.359c3.716-.15,4.479-1.944,4.479-1.944l-.208-5.152Z" transform="translate(18.704 46.839)" fill="#f4af9f"/>
        <path id="Path_2180" data-name="Path 2180" d="M69.43,174.067c.053.5.088.975.14,1.43.006.163,0,.326,0,.505-.005,8.288,5.665,16.932,13.71,17.812,0,0,.066.013.181.025.066,0,.163.009.278.005,1.718.141,7.928.4,10.09-2.189,2.536-3.04,4.678-8.509,4.529-12.181s-.853-4.514-.912-6c-.048-1.155.426-4.8.374-6.371-.248-7.386-5.515-14.51-14.342-14.151-13.241.538-14.789,12.233-14.052,21.111" transform="translate(18.246 40.279)" fill="#f4af9f"/>
        <path id="Path_2181" data-name="Path 2181" d="M52.728,250.991c4.619.936,12.541-25.391,15.073-36.813S70.289,193.3,64.65,192.16s-9.36,7.546-11.475,19.054-5.065,38.841-.446,39.777" transform="translate(13.242 50.581)" fill="#f4af9f"/>
        <path id="Path_2182" data-name="Path 2182" d="M72.909,289.034c3.914-1.464-5.786-30.669-8.828-38.8s-6.854-16.493-11.243-14.851-1.776,10.451,1.266,18.583,14.891,36.534,18.805,35.07" transform="translate(13.302 61.936)" fill="#f4af9f"/>
        <path id="Path_2183" data-name="Path 2183" d="M50.06,223.478s-1.081,11.11-.4,16.736c1.434,11.917,15.412,43.908,15.412,43.908l7.328-4.154s-9.829-39.534-9.94-41.74,2.98-13.021,2.98-13.021Z" transform="translate(13.019 58.856)" fill="#f4af9f"/>
        <path id="Path_2184" data-name="Path 2184" d="M70.822,214.034c-.157,2.97-1.97,10.723-3.205,15.726-.641,2.657-1.141,4.548-1.141,4.548l-8.425-1.156L48.875,231.9s1.766-33.749,13.147-33.437c9.1.25,9.036,11.005,8.8,15.57" transform="translate(12.872 52.268)" fill="#c5d0ff"/>
        <g id="Group_760" data-name="Group 760" transform="translate(70.923 264.894)" style="mix-blend-mode: multiply;isolation: isolate">
          <g id="Group_759" data-name="Group 759">
            <g id="Group_758" data-name="Group 758" clip-path="url(#clip-path-5)">
              <path id="Path_2185" data-name="Path 2185" d="M65.705,226.806c-.641,2.658-1.141,4.549-1.141,4.549L56.138,230.2l4-20.525Z" transform="translate(-56.138 -209.674)" fill="#e5e1f9"/>
            </g>
          </g>
        </g>
        <path id="Path_2186" data-name="Path 2186" d="M67.055,268.447l.03-.971,2.038.9.013.01,3.449,1.716a6.025,6.025,0,0,1,2.211,1.9l1.591,4.064s-.524,1.238-1.986-.771a4.82,4.82,0,0,0-2.14-1.188l1.17,2.162,2.5,4.925c.643,1.4-5.761,4.523-7.9,2.543l-1.2-.982c-1.438-1.582-2.846-2.538-3.555-4.556l-1.46-5.655Z" transform="translate(16.278 70.443)" fill="#f4af9f"/>
        <path id="Path_2187" data-name="Path 2187" d="M87.007,254.746c-4.2,1.056-7.173,7.175-6.5,13.264a88.81,88.81,0,0,0,4.256,18.6c6.293,18.662,10.006,43.072,15.936,43.674s9.6-13.846,6.014-33.636c-3.239-17.887-5.415-41.1-9.643-42.735-2.141-.826-6.39-.093-10.059.831" transform="translate(21.177 66.777)" fill="#f4af9f"/>
        <path id="Path_2188" data-name="Path 2188" d="M100.652,303.993c-15.99-5.578-12.128,84.743-7.231,98.856s8.814-34.655,10.713-58.616,2.81-38.045-3.482-40.239" transform="translate(23.479 79.995)" fill="#f4af9f"/>
        <path id="Path_2189" data-name="Path 2189" d="M88.951,370.956c.174.253.982,22.357.982,22.357s11.675,1.017,11.7.28.667-23.089.667-23.089Z" transform="translate(23.426 97.577)" fill="#f4af9f"/>
        <path id="Path_2190" data-name="Path 2190" d="M38.919,359.564c.019.307-10.779,18.793-10.779,18.793s8.51,7.713,8.916,7.1S48.043,368.38,48.043,368.38Z" transform="translate(7.411 94.696)" fill="#f4af9f"/>
        <path id="Path_2191" data-name="Path 2191" d="M67.052,256.325c-4.234.893-7.446,6.89-7.013,13a88.867,88.867,0,0,0,3.529,18.752c5.565,18.894,8.326,43.428,14.228,44.261s10.126-13.462,7.315-33.377c-2.541-18-3.812-41.283-7.974-43.077-2.107-.908-6.381-.341-10.084.44" transform="translate(15.802 67.268)" fill="#f4af9f"/>
        <path id="Path_2192" data-name="Path 2192" d="M91.31,311.884C81.194,298.3,35.123,376.209,31.267,390.642s25.368-24.7,40.371-43.482S95.29,317.227,91.31,311.884" transform="translate(8.143 81.722)" fill="#f4af9f"/>
        <path id="Path_2193" data-name="Path 2193" d="M117.855,415.569s-14.267.174-14.3.069c-.371-1.608-1.545-35.156.256-78.136,0-.983-9-41.083-9.609-43.541l-.777.219c.373,2.323,3.342,21.771,3.3,33.478a31.351,31.351,0,0,1-.537,6.582c-1.7,7.178-53,72.35-53,72.35l-9.144-5.362-2.369-1.385-.044-.03s21.283-38.409,26.555-46.406c5.51-8.385,16.158-21.61,15.979-23.591-.222-1.951-12.554-52.647-7.55-69.878,8.19-28.237,47.077-2.815,47.077-2.815s8.37,20.046,11.154,70.876c.7,12.747-6.988,87.569-6.988,87.569" transform="translate(8.33 64.95)" fill="#31374c"/>
        <path id="Path_2194" data-name="Path 2194" d="M107.888,274.207l-16.944.99L61.29,276.911a2.305,2.305,0,0,1-2.464-2.409c.375-9.341,1.5-41.486-.027-49.088-5.432-26.925-1.42-35.838,6.048-38.247,11.19-3.64,22.3,2.384,26.107,5.662,6.753,5.817,15.5,5.1,16.406,14.438a50.508,50.508,0,0,1-.278,10.52,25.683,25.683,0,0,1-.587,3.585v.028a13.057,13.057,0,0,1-.375,1.364c-.268.883-.456,1.553-.562,1.82-4.87,13.73,1.74,41.539,3.425,48.124a1.2,1.2,0,0,1-1.1,1.5" transform="translate(14.825 48.995)" fill="#c5d0ff"/>
        <g id="Group_763" data-name="Group 763" transform="translate(105.77 263.893)" style="mix-blend-mode: multiply;isolation: isolate">
          <g id="Group_762" data-name="Group 762">
            <g id="Group_761" data-name="Group 761" clip-path="url(#clip-path-6)">
              <path id="Path_2195" data-name="Path 2195" d="M100.664,268.191l-16.944.99c3.775-.857,7.55-2.034,9.662-3.506,5.247-3.668.858-17.8,1.124-30.379.268-12.553-5.545-12.947-5.545-12.947,5.205.053,4.913-9.7,6.653-13.469-.106,1.151,5.786.988,3.657,6.475v.028a13.057,13.057,0,0,1-.375,1.364c-.268.883-.456,1.553-.562,1.82-4.87,13.73,1.74,41.539,3.425,48.124a1.2,1.2,0,0,1-1.1,1.5" transform="translate(-83.721 -208.881)" fill="#e5e1f9"/>
            </g>
          </g>
        </g>
        <path id="Path_2196" data-name="Path 2196" d="M134.4,226.122c2.389-4.016-19.658-20.053-29.518-26.166s-18.724-9.164-21.641-4.261,4,11.234,14.076,16.981,34.694,17.462,37.084,13.446" transform="translate(21.744 50.898)" fill="#f4af9f"/>
        <path id="Path_2197" data-name="Path 2197" d="M166.12,192.387c-2.44-3.349-27.759,13.685-34.718,18.753s-13.932,10.933-11.2,14.689,10.456-1.081,17.415-6.151,30.94-23.942,28.5-27.291" transform="translate(31.497 50.554)" fill="#f4af9f"/>
        <path id="Path_2198" data-name="Path 2198" d="M107.858,204.778l18.758,10.813,36.3-21.957,5.407,4.855S139.54,225.836,127.61,227.4c-9.269,1.214-27.7-8.607-27.7-8.938s7.945-13.682,7.945-13.682" transform="translate(26.313 50.996)" fill="#f4af9f"/>
        <path id="Path_2199" data-name="Path 2199" d="M114.579,205.15l-8.087,15.893s-13.2-6.441-17.184-8.663-17.03-11.174-12.394-19c5.805-9.8,37.665,11.769,37.665,11.769" transform="translate(19.997 50.257)" fill="#c5d0ff"/>
        <path id="Path_2200" data-name="Path 2200" d="M148.564,197.492l-.972.009.811-2.072.008-.013,1.572-3.518a6.033,6.033,0,0,1,1.8-2.287l3.995-1.759s1.26.474-.686,2.018a4.79,4.79,0,0,0-1.1,2.187l2.11-1.26,4.817-2.7c1.377-.7,4.759,5.568,2.869,7.791l-.931,1.241c-1.521,1.5-2.418,2.949-4.405,3.742l-5.587,1.693Z" transform="translate(38.87 49.474)" fill="#f4af9f"/>
        <path id="Path_2201" data-name="Path 2201" d="M96.315,206c1.717,10.835,5.747,22.866-4.551,30.773-5.109,3.924-13.814,8-20.084,4.553-2.733-1.5-4.518-4.223-7.194-5.8A18.873,18.873,0,0,0,54.412,232.9c-1.62.063-3.232.347-4.851.283-4.595-.182-6.538-3.959-7.271-8.034a19.189,19.189,0,0,1,7.4-19.238c2.283-1.679,4.964-3.174,6.255-5.83,1.412-2.91.032-6.144-.464-9.115a10.185,10.185,0,0,1,3.786-10.074c3.962-2.779,8-3.679,10.284-8.391,2.082-4.289,2.2-9.287,4.534-13.47a17.642,17.642,0,0,1,10.68-8.091c7.468-1.819,21.092.883,22.536,10.145a8.859,8.859,0,0,1-.019,3.2c-.529,1.857-1.313,2.379-2.037,4.1-2.264,5.376-3.193,11.37-4.4,17.126-1.214,5.8-4.244,11.335-4.692,17.285a13.683,13.683,0,0,0,.154,3.2" transform="translate(11.048 39.612)" fill="#31374c"/>
        <path id="Path_2202" data-name="Path 2202" d="M89.741,385.9s5.137,6.163,11.844.841c0,0,13.508,3.439,13.483,6.551s-7.027,2.26-7.027,2.26l-17.879-.611a12.965,12.965,0,0,1-.421-9.041" transform="translate(23.478 101.631)" fill="#31374c"/>
        <path id="Path_2203" data-name="Path 2203" d="M30.136,372.457s.585,8,9.137,7.584c0,0,8.975,10.664,7.142,13.179s-7.028-2.258-7.028-2.258L25.21,380.05a12.969,12.969,0,0,1,4.926-7.593" transform="translate(6.639 98.091)" fill="#31374c"/>
        <rect id="Rectangle_495" data-name="Rectangle 495" width="503.379" height="3.203" transform="translate(0 496.797)" fill="#31374c"/>
        <path id="Path_2204" data-name="Path 2204" d="M283.93,192.016a11.6,11.6,0,0,1-5.728,1.519l-114.422.109a11.6,11.6,0,0,1-11.613-11.591l-.069-70.024a11.6,11.6,0,0,1,11.593-11.614l114.42-.111A11.605,11.605,0,0,1,289.726,111.9l.068,70.024A11.628,11.628,0,0,1,283.93,192.016Z" transform="translate(40.057 26.416)" fill="none" stroke="#e6edfc" stroke-miterlimit="10" stroke-width="2.019"/>
        <path id="Path_2205" data-name="Path 2205" d="M276.526,183.869l-114.42.111a3.606,3.606,0,0,1-3.609-3.6l-.068-70.024a3.605,3.605,0,0,1,3.6-3.609l114.42-.111a3.606,3.606,0,0,1,3.609,3.6l.067,70.026a3.606,3.606,0,0,1-3.6,3.609" transform="translate(41.724 28.083)" fill="#8391fc"/>
        <path id="Path_2206" data-name="Path 2206" d="M165.266,155.922l9.343-9.36a15.057,15.057,0,0,1,21.294-.02l6.826,6.812a.946.946,0,0,0,1.337,0l24.776-24.825a10.377,10.377,0,0,1,14.674-.014l26.351,26.3a.956.956,0,0,1,.278.668l.015,15.783a.946.946,0,0,1-.945.946l-103.256.1a.945.945,0,0,1-.946-.944l-.023-14.775a.95.95,0,0,1,.277-.67" transform="translate(43.452 33.047)" fill="#fff"/>
        <path id="Path_2207" data-name="Path 2207" d="M188.281,131.232a6.221,6.221,0,1,1-6.227-6.216,6.22,6.22,0,0,1,6.227,6.216" transform="translate(46.309 32.925)" fill="#fff"/>
        <g id="Group_766" data-name="Group 766" transform="translate(165.773 322.371)" style="mix-blend-mode: multiply;isolation: isolate">
          <g id="Group_765" data-name="Group 765">
            <g id="Group_764" data-name="Group 764" clip-path="url(#clip-path-7)">
              <rect id="Rectangle_496" data-name="Rectangle 496" width="190.46" height="34.283" transform="translate(0 0)" fill="#e6edfc"/>
            </g>
          </g>
        </g>
        <g id="Group_769" data-name="Group 769" transform="translate(165.773 373.16)" style="mix-blend-mode: multiply;isolation: isolate">
          <g id="Group_768" data-name="Group 768">
            <g id="Group_767" data-name="Group 767" clip-path="url(#clip-path-8)">
              <rect id="Rectangle_498" data-name="Rectangle 498" width="190.46" height="90.749" transform="translate(0)" fill="#e6edfc"/>
            </g>
          </g>
        </g>
        <path id="Path_2208" data-name="Path 2208" d="M244.152,22.856A22.855,22.855,0,1,1,221.3,0a22.856,22.856,0,0,1,22.855,22.856" transform="translate(52.262)" fill="#c5d0ff"/>
        <path id="Path_2209" data-name="Path 2209" d="M210.3,31.531l-3.933-13.545a2.249,2.249,0,0,1,4.319-1.255l2.432,8.379,34-19.892.605,1.166Z" transform="translate(54.327 1.374)" fill="#fff"/>
        <path id="Path_2210" data-name="Path 2210" d="M367.437,195.723a22.855,22.855,0,1,1-22.855-22.855,22.855,22.855,0,0,1,22.855,22.855" transform="translate(84.731 45.527)" fill="#c5d0ff"/>
        <path id="Path_2211" data-name="Path 2211" d="M333.59,204.4l-3.933-13.545a2.249,2.249,0,0,1,4.319-1.255l2.432,8.379,34-19.892.605,1.166Z" transform="translate(86.796 46.901)" fill="#fff"/>
        <path id="Path_2212" data-name="Path 2212" d="M377.307,138.992a5.218,5.218,0,0,1-2.619.512l-51.406-3.357a5.224,5.224,0,0,1-4.873-5.554l2.054-31.46a5.224,5.224,0,0,1,5.554-4.873l51.406,3.357a5.224,5.224,0,0,1,4.873,5.554l-2.054,31.46A5.234,5.234,0,0,1,377.307,138.992Z" transform="translate(83.854 24.822)" fill="none" stroke="#c5d0ff" stroke-miterlimit="10" stroke-width="0.909"/>
        <path id="Path_2213" data-name="Path 2213" d="M374.173,135.16,322.767,131.8a1.623,1.623,0,0,1-1.515-1.726l2.054-31.46a1.624,1.624,0,0,1,1.726-1.515l51.406,3.357a1.624,1.624,0,0,1,1.515,1.726l-2.054,31.46a1.623,1.623,0,0,1-1.726,1.515" transform="translate(84.605 25.572)" fill="#c5d0ff"/>
        <path id="Path_2214" data-name="Path 2214" d="M324.852,118.886l4.476-3.927a6.777,6.777,0,0,1,9.566.623l2.864,3.263a.425.425,0,0,0,.6.04l11.871-10.415a4.673,4.673,0,0,1,6.592.43l11.056,12.6a.43.43,0,0,1,.1.307l-.464,7.093a.426.426,0,0,1-.452.4l-46.391-3.03a.423.423,0,0,1-.4-.452l.43-6.639a.424.424,0,0,1,.144-.291" transform="translate(85.403 28.262)" fill="#fff"/>
        <path id="Path_2215" data-name="Path 2215" d="M335.684,108.881a2.8,2.8,0,1,1-2.613-2.978,2.8,2.8,0,0,1,2.613,2.978" transform="translate(86.933 27.889)" fill="#fff"/>
        <path id="Path_2216" data-name="Path 2216" d="M78.931,123.3a32.1,32.1,0,0,0-3.745-9.336A32.835,32.835,0,0,0,64.37,102.9a32.408,32.408,0,0,0-9.25-3.962,32.811,32.811,0,0,0-8.094-1,32.846,32.846,0,0,0-16.709,4.576,32.821,32.821,0,0,0-11.052,10.826,32.787,32.787,0,0,0-.389,34.043,32.834,32.834,0,0,0,10.816,11.063A32.339,32.339,0,0,0,38.93,162.4a32.993,32.993,0,0,0,15.477.162,31.866,31.866,0,0,0,9.326-3.734A32.761,32.761,0,0,0,74.8,148a32.027,32.027,0,0,0,3.972-9.239,32.822,32.822,0,0,0,1-8.1,32.472,32.472,0,0,0-.841-7.372M28.86,130.667a18.171,18.171,0,1,1,18.166,18.166A18.166,18.166,0,0,1,28.86,130.667" transform="translate(3.763 25.791)" fill="#e6edfc"/>
        <path id="Path_2217" data-name="Path 2217" d="M46.983,111.293H37.22a2.853,2.853,0,0,1-2.854-2.854V95.8a2.853,2.853,0,0,1,2.854-2.854h9.763A2.853,2.853,0,0,1,49.836,95.8v12.641a2.853,2.853,0,0,1-2.853,2.854" transform="translate(9.051 24.478)" fill="#e6edfc"/>
        <path id="Path_2218" data-name="Path 2218" d="M35.877,112.21l-6.9,6.9a2.855,2.855,0,0,1-4.036,0L16,110.175a2.851,2.851,0,0,1,0-4.035l6.9-6.9a2.855,2.855,0,0,1,4.036,0l8.94,8.94a2.853,2.853,0,0,1,0,4.035" transform="translate(3.993 25.915)" fill="#e6edfc"/>
        <path id="Path_2219" data-name="Path 2219" d="M27.654,120.289v9.763a2.853,2.853,0,0,1-2.854,2.854H12.159a2.853,2.853,0,0,1-2.854-2.854v-9.763a2.854,2.854,0,0,1,2.854-2.854H24.8a2.854,2.854,0,0,1,2.854,2.854" transform="translate(2.451 30.928)" fill="#e6edfc"/>
        <path id="Path_2220" data-name="Path 2220" d="M28.57,132.662l6.9,6.9a2.853,2.853,0,0,1,0,4.035l-8.94,8.94a2.853,2.853,0,0,1-4.035,0l-6.9-6.9a2.853,2.853,0,0,1,0-4.035l8.94-8.94a2.853,2.853,0,0,1,4.035,0" transform="translate(3.887 34.718)" fill="#e6edfc"/>
        <path id="Path_2221" data-name="Path 2221" d="M36.65,140.218h9.763a2.853,2.853,0,0,1,2.854,2.854v12.641a2.853,2.853,0,0,1-2.854,2.854H36.65a2.854,2.854,0,0,1-2.854-2.854V143.072a2.854,2.854,0,0,1,2.854-2.854" transform="translate(8.901 36.928)" fill="#e6edfc"/>
        <path id="Path_2222" data-name="Path 2222" d="M49.023,139.969l6.9-6.9a2.853,2.853,0,0,1,4.035,0L68.9,142a2.853,2.853,0,0,1,0,4.035l-6.9,6.9a2.853,2.853,0,0,1-4.035,0L49.023,144a2.853,2.853,0,0,1,0-4.035" transform="translate(12.691 34.824)" fill="#e6edfc"/>
        <path id="Path_2223" data-name="Path 2223" d="M56.579,130.622v-9.763a2.853,2.853,0,0,1,2.854-2.854H72.074a2.853,2.853,0,0,1,2.854,2.854v9.763a2.854,2.854,0,0,1-2.854,2.854H59.433a2.854,2.854,0,0,1-2.854-2.854" transform="translate(14.901 31.078)" fill="#e6edfc"/>
        <path id="Path_2224" data-name="Path 2224" d="M56.329,119.516l-6.9-6.9a2.853,2.853,0,0,1,0-4.035l8.94-8.94a2.853,2.853,0,0,1,4.035,0l6.9,6.9a2.853,2.853,0,0,1,0,4.035l-8.94,8.94a2.853,2.853,0,0,1-4.035,0" transform="translate(12.797 26.021)" fill="#e6edfc"/>
        <path id="Path_2225" data-name="Path 2225" d="M389.947,270.275a20.946,20.946,0,0,0-2.451-6.115,21.5,21.5,0,0,0-7.082-7.245,21.209,21.209,0,0,0-6.058-2.594,21.446,21.446,0,0,0-5.3-.658,21.529,21.529,0,0,0-10.941,3,21.5,21.5,0,0,0-7.238,7.089,21.474,21.474,0,0,0-.254,22.295,21.488,21.488,0,0,0,7.082,7.245,21.121,21.121,0,0,0,6.05,2.594,21.566,21.566,0,0,0,10.136.106A20.839,20.839,0,0,0,380,293.544a21.439,21.439,0,0,0,7.245-7.089,20.951,20.951,0,0,0,2.6-6.051,21.441,21.441,0,0,0,.658-5.3,21.158,21.158,0,0,0-.553-4.827M357.157,275.1A11.9,11.9,0,1,1,369.052,287a11.9,11.9,0,0,1-11.895-11.9" transform="translate(91.549 66.805)" fill="#e6edfc"/>
        <path id="Path_2226" data-name="Path 2226" d="M369.025,262.415h-6.394a1.868,1.868,0,0,1-1.868-1.869v-8.279a1.869,1.869,0,0,1,1.868-1.87h6.394a1.869,1.869,0,0,1,1.869,1.87v8.279a1.868,1.868,0,0,1-1.869,1.869" transform="translate(95.012 65.946)" fill="#e6edfc"/>
        <path id="Path_2227" data-name="Path 2227" d="M361.752,263.014l-4.522,4.522a1.87,1.87,0,0,1-2.643,0l-5.853-5.854a1.868,1.868,0,0,1,0-2.643l4.52-4.522a1.87,1.87,0,0,1,2.643,0l5.854,5.854a1.868,1.868,0,0,1,0,2.643" transform="translate(91.699 66.886)" fill="#e6edfc"/>
        <path id="Path_2228" data-name="Path 2228" d="M356.367,268.306V274.7a1.868,1.868,0,0,1-1.869,1.869H346.22a1.869,1.869,0,0,1-1.87-1.869v-6.394a1.869,1.869,0,0,1,1.87-1.868H354.5a1.868,1.868,0,0,1,1.869,1.868" transform="translate(90.689 70.17)" fill="#e6edfc"/>
        <path id="Path_2229" data-name="Path 2229" d="M356.967,276.409l4.522,4.522a1.87,1.87,0,0,1,0,2.643l-5.854,5.853a1.868,1.868,0,0,1-2.643,0l-4.522-4.52a1.87,1.87,0,0,1,0-2.643l5.854-5.854a1.868,1.868,0,0,1,2.643,0" transform="translate(91.63 72.652)" fill="#e6edfc"/>
        <path id="Path_2230" data-name="Path 2230" d="M362.259,281.357h6.394a1.868,1.868,0,0,1,1.869,1.869V291.5a1.869,1.869,0,0,1-1.869,1.87h-6.394a1.869,1.869,0,0,1-1.868-1.87v-8.279a1.868,1.868,0,0,1,1.868-1.869" transform="translate(94.913 74.099)" fill="#e6edfc"/>
        <path id="Path_2231" data-name="Path 2231" d="M370.361,281.195l4.522-4.522a1.87,1.87,0,0,1,2.643,0l5.853,5.854a1.868,1.868,0,0,1,0,2.643l-4.52,4.522a1.87,1.87,0,0,1-2.643,0l-5.854-5.854a1.868,1.868,0,0,1,0-2.643" transform="translate(97.395 72.721)" fill="#e6edfc"/>
        <path id="Path_2232" data-name="Path 2232" d="M375.31,275.073V268.68a1.868,1.868,0,0,1,1.868-1.868h8.279a1.869,1.869,0,0,1,1.87,1.868v6.394a1.869,1.869,0,0,1-1.87,1.868h-8.279a1.868,1.868,0,0,1-1.868-1.868" transform="translate(98.843 70.268)" fill="#e6edfc"/>
        <path id="Path_2233" data-name="Path 2233" d="M375.147,267.8l-4.522-4.522a1.87,1.87,0,0,1,0-2.643l5.854-5.853a1.868,1.868,0,0,1,2.643,0l4.522,4.52a1.871,1.871,0,0,1,0,2.643L377.79,267.8a1.868,1.868,0,0,1-2.643,0" transform="translate(97.465 66.956)" fill="#e6edfc"/>
      </g>
    </g>
  </g>
</svg>
